<svg width="31" height="31" viewBox="0 0 31 31" fill="none" xmlns="http://www.w3.org/2000/svg">
<path d="M15.4999 2.58331C8.38284 2.58331 2.58325 8.3829 2.58325 15.5C2.58325 22.6171 8.38284 28.4166 15.4999 28.4166C22.617 28.4166 28.4166 22.6171 28.4166 15.5C28.4166 8.3829 22.617 2.58331 15.4999 2.58331ZM19.8399 18.4708C20.2145 18.8454 20.2145 19.4654 19.8399 19.84C19.6462 20.0337 19.4008 20.1241 19.1553 20.1241C18.9099 20.1241 18.6645 20.0337 18.4708 19.84L15.4999 16.8691L12.5291 19.84C12.3353 20.0337 12.0899 20.1241 11.8445 20.1241C11.5991 20.1241 11.3537 20.0337 11.1599 19.84C10.7853 19.4654 10.7853 18.8454 11.1599 18.4708L14.1308 15.5L11.1599 12.5291C10.7853 12.1546 10.7853 11.5346 11.1599 11.16C11.5345 10.7854 12.1545 10.7854 12.5291 11.16L15.4999 14.1308L18.4708 11.16C18.8453 10.7854 19.4653 10.7854 19.8399 11.16C20.2145 11.5346 20.2145 12.1546 19.8399 12.5291L16.8691 15.5L19.8399 18.4708Z" fill="#EB5757"/>
</svg>
